<svg width="25" height="12" viewBox="0 0 25 12" fill="none" xmlns="http://www.w3.org/2000/svg">
<path d="M3.38379 11H5.44824V1.13574H3.39062L0.84082 2.89258V4.81348L3.26074 3.14551H3.38379V11ZM11.962 11.2529C14.17 11.2529 15.7354 9.79688 15.7354 7.74609C15.7354 5.86621 14.3614 4.48535 12.4883 4.48535C11.3399 4.48535 10.4239 5.00488 9.9727 5.92773H9.84965C9.84965 3.79492 10.6426 2.57812 12.0098 2.57812C12.8096 2.57812 13.4043 2.98828 13.5616 3.6582H15.6055C15.3663 2.01074 13.9239 0.882812 11.9825 0.882812C9.46 0.882812 7.8809 2.86523 7.8809 6.13965C7.8809 9.56445 9.59672 11.2529 11.962 11.2529ZM11.9414 9.55762C10.9161 9.55762 10.1573 8.77832 10.1573 7.7666C10.1573 6.77539 10.8887 6.03711 11.9483 6.03711C13.0079 6.03711 13.7325 6.76855 13.7325 7.79395C13.7325 8.79199 12.9668 9.55762 11.9414 9.55762ZM22.1739 7.94434H24.8331V6.13281H22.1739V3.35059H20.3897V6.13281H17.7374V7.94434H20.3897V10.7266H22.1739V7.94434Z" fill="#F26E45"/>
</svg>
