<svg width="18" height="12" viewBox="0 0 18 12" fill="none" xmlns="http://www.w3.org/2000/svg">
<path d="M4.79199 11.2529C7.23242 11.2529 8.70898 9.31836 8.70898 6.05762C8.70898 2.7832 7.21191 0.882812 4.79199 0.882812C2.36523 0.882812 0.875 2.7832 0.875 6.05078C0.875 9.3252 2.35156 11.2529 4.79199 11.2529ZM4.79199 9.57129C3.66406 9.57129 2.9668 8.38867 2.9668 6.05078C2.9668 3.7334 3.6709 2.57129 4.79199 2.57129C5.91992 2.57129 6.61719 3.72656 6.61719 6.05078C6.61719 8.38867 5.92676 9.57129 4.79199 9.57129ZM15.1475 7.94434H17.8067V6.13281H15.1475V3.35059H13.3633V6.13281H10.711V7.94434H13.3633V10.7266H15.1475V7.94434Z" fill="white"/>
</svg>
