<svg width="18" height="12" viewBox="0 0 18 12" fill="none" xmlns="http://www.w3.org/2000/svg">
<path d="M4.93555 11.2529C7.14355 11.2529 8.70898 9.79688 8.70898 7.74609C8.70898 5.86621 7.33496 4.48535 5.46191 4.48535C4.31348 4.48535 3.39746 5.00488 2.94629 5.92773H2.82324C2.82324 3.79492 3.61621 2.57812 4.9834 2.57812C5.7832 2.57812 6.37793 2.98828 6.53516 3.6582H8.5791C8.33984 2.01074 6.89746 0.882812 4.95605 0.882812C2.43359 0.882812 0.854492 2.86523 0.854492 6.13965C0.854492 9.56445 2.57031 11.2529 4.93555 11.2529ZM4.91504 9.55762C3.88965 9.55762 3.13086 8.77832 3.13086 7.7666C3.13086 6.77539 3.8623 6.03711 4.92188 6.03711C5.98145 6.03711 6.70605 6.76855 6.70605 7.79395C6.70605 8.79199 5.94043 9.55762 4.91504 9.55762ZM15.1475 7.94434H17.8067V6.13281H15.1475V3.35059H13.3633V6.13281H10.711V7.94434H13.3633V10.7266H15.1475V7.94434Z" fill="#FAD5C9"/>
</svg>
