<svg width="29" height="28" viewBox="0 0 29 28" fill="none" xmlns="http://www.w3.org/2000/svg">
<path d="M25.25 2.33331H11.25C10.9406 2.33331 10.6439 2.45623 10.4251 2.67502C10.2063 2.89381 10.0834 3.19056 10.0834 3.49998V8.16665H7.75004C7.44062 8.16665 7.14388 8.28956 6.92508 8.50836C6.70629 8.72715 6.58337 9.02389 6.58337 9.33331V14H4.25004C3.94062 14 3.64388 14.1229 3.42508 14.3417C3.20629 14.5605 3.08337 14.8572 3.08337 15.1666V24.5C3.08337 24.8094 3.20629 25.1061 3.42508 25.3249C3.64388 25.5437 3.94062 25.6666 4.25004 25.6666H13.5834C13.8928 25.6666 14.1895 25.5437 14.4083 25.3249C14.6271 25.1061 14.75 24.8094 14.75 24.5V22.1666H19.4167C19.7261 22.1666 20.0229 22.0437 20.2417 21.8249C20.4605 21.6061 20.5834 21.3094 20.5834 21V18.6666H25.25C25.5595 18.6666 25.8562 18.5437 26.075 18.3249C26.2938 18.1061 26.4167 17.8094 26.4167 17.5V3.49998C26.4167 3.19056 26.2938 2.89381 26.075 2.67502C25.8562 2.45623 25.5595 2.33331 25.25 2.33331ZM12.4167 23.3333H5.41671V16.3333H12.4167V23.3333ZM18.25 19.8333H14.75V15.1666C14.75 14.8572 14.6271 14.5605 14.4083 14.3417C14.1895 14.1229 13.8928 14 13.5834 14H8.91671V10.5H18.25V19.8333ZM24.0834 16.3333H20.5834V9.33331C20.5834 9.02389 20.4605 8.72715 20.2417 8.50836C20.0229 8.28956 19.7261 8.16665 19.4167 8.16665H12.4167V4.66665H24.0834V16.3333Z" fill="#757575"/>
</svg>
