<svg width="25" height="11" viewBox="0 0 25 11" fill="none" xmlns="http://www.w3.org/2000/svg">
<path d="M3.38379 11H5.44824V1.13574H3.39062L0.84082 2.89258V4.81348L3.26074 3.14551H3.38379V11ZM7.90824 4.15039H9.8223C9.8223 3.20703 10.4512 2.54395 11.4561 2.54395C12.42 2.54395 12.9805 3.16602 12.9805 3.95215C12.9805 4.61523 12.7139 5.06641 11.4834 6.24902L8.02445 9.55762V11H15.1407V9.28418H10.8067V9.16113L12.8575 7.24707C14.4981 5.70898 15.0039 4.91602 15.0039 3.76074C15.0039 2.09277 13.6641 0.882812 11.5723 0.882812C9.41215 0.882812 7.90824 2.21582 7.90824 4.15039ZM21.5997 7.94434H24.2589V6.13281H21.5997V3.35059H19.8155V6.13281H17.1632V7.94434H19.8155V10.7266H21.5997V7.94434Z" fill="#F4A992"/>
</svg>
