<svg width="343" height="192" viewBox="0 0 343 192" fill="none" xmlns="http://www.w3.org/2000/svg">
<path d="M52.9837 6H0L55.7724 187H108.756L52.9837 6Z" fill="url(#paint0_linear_44:43)"/>
<path d="M220.301 187L164.528 6L138.037 92.3231L167.317 187H220.301Z" fill="url(#paint1_linear_44:43)"/>
<path d="M108.756 187L82.2644 100.677L111.545 6H164.529L108.756 187Z" fill="url(#paint2_linear_44:43)"/>
<path d="M220.301 187L193.809 100.677L223.089 6H276.073L220.301 187Z" fill="url(#paint3_linear_44:43)"/>
<path d="M338.817 129.915L310.931 99.2846L242.61 134.092L225.878 187L338.817 129.915Z" fill="url(#paint4_linear_44:43)"/>
<path d="M343 83.9692L276.073 6L263.067 48.3022L338.817 129.915L343 83.9692Z" fill="url(#paint5_linear_44:43)"/>
<defs>
<linearGradient id="paint0_linear_44:43" x1="29.2805" y1="6" x2="83.5154" y2="187.043" gradientUnits="userSpaceOnUse">
<stop stop-color="#FF5823"/>
<stop offset="1" stop-color="#EF3A01"/>
</linearGradient>
<linearGradient id="paint1_linear_44:43" x1="150.585" y1="51.9462" x2="192.305" y2="187.034" gradientUnits="userSpaceOnUse">
<stop stop-color="#DF2800"/>
<stop offset="1" stop-color="#FD5019"/>
</linearGradient>
<linearGradient id="paint2_linear_44:43" x1="136.642" y1="6" x2="93.5314" y2="141.09" gradientUnits="userSpaceOnUse">
<stop stop-color="#FF5D2B"/>
<stop offset="1" stop-color="#DF2800"/>
</linearGradient>
<linearGradient id="paint3_linear_44:43" x1="249.581" y1="6" x2="206.47" y2="142.482" gradientUnits="userSpaceOnUse">
<stop stop-color="#FF5925"/>
<stop offset="1" stop-color="#DF2800"/>
</linearGradient>
<linearGradient id="paint4_linear_44:43" x1="322.086" y1="113.208" x2="232.906" y2="160.652" gradientUnits="userSpaceOnUse">
<stop stop-color="#DF2800"/>
<stop offset="1" stop-color="#FF5520"/>
</linearGradient>
<linearGradient id="paint5_linear_44:43" x1="259.341" y1="11.5692" x2="341.468" y2="109.147" gradientUnits="userSpaceOnUse">
<stop stop-color="#DF2800"/>
<stop offset="1" stop-color="#FF5D29"/>
</linearGradient>
</defs>
</svg>
