<svg width="28" height="28" viewBox="0 0 28 28" fill="none" xmlns="http://www.w3.org/2000/svg">
<path d="M21 6.99999H16.8117L19.495 4.32833C19.6038 4.21955 19.6901 4.09041 19.7489 3.94828C19.8078 3.80616 19.8381 3.65383 19.8381 3.49999C19.8381 3.34616 19.8078 3.19383 19.7489 3.0517C19.6901 2.90958 19.6038 2.78044 19.495 2.67166C19.3862 2.56288 19.2571 2.47659 19.115 2.41772C18.9728 2.35885 18.8205 2.32855 18.6667 2.32855C18.356 2.32855 18.058 2.45197 17.8383 2.67166L14 6.46333L12.635 4.12999C12.5584 3.9967 12.4563 3.8798 12.3345 3.78597C12.2127 3.69214 12.0737 3.62322 11.9252 3.58313C11.7768 3.54305 11.622 3.53259 11.4695 3.55236C11.317 3.57212 11.17 3.62172 11.0367 3.69833C10.9034 3.77493 10.7865 3.87704 10.6926 3.99882C10.5988 4.1206 10.5299 4.25967 10.4898 4.40809C10.4497 4.55651 10.4393 4.71137 10.459 4.86383C10.4788 5.01629 10.5284 5.16337 10.605 5.29666L11.6667 6.99999H7C6.07174 6.99999 5.1815 7.36874 4.52513 8.02512C3.86875 8.6815 3.5 9.57173 3.5 10.5V19.8333C3.5 20.7616 3.86875 21.6518 4.52513 22.3082C5.1815 22.9646 6.07174 23.3333 7 23.3333V24.5C7 24.8094 7.12292 25.1062 7.34171 25.325C7.5605 25.5437 7.85725 25.6667 8.16667 25.6667C8.47609 25.6667 8.77283 25.5437 8.99162 25.325C9.21042 25.1062 9.33333 24.8094 9.33333 24.5V23.3333H18.6667V24.5C18.6667 24.8094 18.7896 25.1062 19.0084 25.325C19.2272 25.5437 19.5239 25.6667 19.8333 25.6667C20.1428 25.6667 20.4395 25.5437 20.6583 25.325C20.8771 25.1062 21 24.8094 21 24.5V23.3333C21.9283 23.3333 22.8185 22.9646 23.4749 22.3082C24.1313 21.6518 24.5 20.7616 24.5 19.8333V10.5C24.5 9.57173 24.1313 8.6815 23.4749 8.02512C22.8185 7.36874 21.9283 6.99999 21 6.99999ZM22.1667 19.8333C22.1667 20.1427 22.0438 20.4395 21.825 20.6583C21.6062 20.8771 21.3094 21 21 21H7C6.69058 21 6.39383 20.8771 6.17504 20.6583C5.95625 20.4395 5.83333 20.1427 5.83333 19.8333V10.5C5.83333 10.1906 5.95625 9.89383 6.17504 9.67503C6.39383 9.45624 6.69058 9.33333 7 9.33333H21C21.3094 9.33333 21.6062 9.45624 21.825 9.67503C22.0438 9.89383 22.1667 10.1906 22.1667 10.5V19.8333Z" fill="#757575"/>
</svg>
