<svg width="30" height="28" viewBox="0 0 30 28" fill="none" xmlns="http://www.w3.org/2000/svg">
<path d="M26.6667 11.2817C26.593 11.0683 26.459 10.8808 26.2809 10.7421C26.1028 10.6033 25.8883 10.5192 25.6634 10.5L19.0251 9.53165L16.0501 3.49999C15.9545 3.30274 15.8054 3.13639 15.6197 3.01999C15.434 2.90359 15.2192 2.84186 15.0001 2.84186C14.7809 2.84186 14.5662 2.90359 14.3805 3.01999C14.1947 3.13639 14.0456 3.30274 13.9501 3.49999L10.9751 9.51999L4.33672 10.5C4.1208 10.5307 3.9178 10.6213 3.75076 10.7615C3.58373 10.9017 3.45934 11.086 3.39172 11.2933C3.32982 11.4959 3.32427 11.7116 3.37565 11.9171C3.42704 12.1227 3.53342 12.3103 3.68339 12.46L8.50172 17.1267L7.33505 23.7533C7.28795 23.9731 7.30537 24.2019 7.3852 24.4121C7.46504 24.6222 7.6039 24.8048 7.78507 24.9379C7.96625 25.0711 8.18202 25.149 8.40644 25.1624C8.63086 25.1757 8.85436 25.124 9.05006 25.0133L15.0001 21.8983L20.9501 25.0133C21.1138 25.1057 21.2987 25.1539 21.4867 25.1533C21.7339 25.1542 21.9749 25.0766 22.1751 24.9317C22.3561 24.802 22.4962 24.6232 22.5789 24.4165C22.6616 24.2098 22.6834 23.9837 22.6417 23.765L21.4751 17.1383L26.2934 12.4717C26.4618 12.3289 26.5863 12.1414 26.6524 11.9307C26.7185 11.7201 26.7235 11.495 26.6667 11.2817ZM19.4917 15.9483C19.3567 16.0795 19.2554 16.2413 19.1965 16.4201C19.1376 16.5989 19.1228 16.7893 19.1534 16.975L19.9934 21.875L15.6067 19.5417C15.4362 19.4573 15.2486 19.4134 15.0584 19.4134C14.8682 19.4134 14.6805 19.4573 14.5101 19.5417L10.1234 21.875L10.9634 16.975C10.994 16.7893 10.9792 16.5989 10.9203 16.4201C10.8614 16.2413 10.7601 16.0795 10.6251 15.9483L7.12506 12.4483L12.0367 11.7367C12.2257 11.7104 12.4054 11.6381 12.56 11.5262C12.7146 11.4144 12.8393 11.2663 12.9234 11.095L15.0001 6.64999L17.1934 11.1067C17.2774 11.278 17.4022 11.426 17.5568 11.5379C17.7114 11.6498 17.8911 11.722 18.0801 11.7483L22.9917 12.46L19.4917 15.9483Z" fill="#757575"/>
</svg>
