<svg width="25" height="12" viewBox="0 0 25 12" fill="none" xmlns="http://www.w3.org/2000/svg">
<path d="M3.38379 11H5.44824V1.13574H3.39062L0.84082 2.89258V4.81348L3.26074 3.14551H3.38379V11ZM11.8799 11.2529C14.252 11.2529 15.8721 10.0771 15.8721 8.34766C15.8721 7.08984 15.0039 6.0918 13.6914 5.8457V5.72266C14.7715 5.46973 15.4688 4.62891 15.4688 3.57617C15.4688 2.00391 13.9786 0.882812 11.8868 0.882812C9.78813 0.882812 8.29789 2.00391 8.29789 3.57617C8.29789 4.62207 9.00199 5.47656 10.0752 5.72266V5.8457C8.7559 6.13965 7.90141 7.13086 7.90141 8.36816C7.90141 10.084 9.50785 11.2529 11.8799 11.2529ZM11.8799 9.69434C10.7998 9.69434 10.0479 9.07227 10.0479 8.17676C10.0479 7.27441 10.7998 6.65234 11.8799 6.65234C12.9668 6.65234 13.7188 7.27441 13.7188 8.17676C13.7188 9.07227 12.9668 9.69434 11.8799 9.69434ZM11.8799 5.12793C10.9707 5.12793 10.335 4.56738 10.335 3.77441C10.335 2.97461 10.9639 2.41406 11.8799 2.41406C12.7959 2.41406 13.4317 2.97461 13.4317 3.77441C13.4317 4.56738 12.7959 5.12793 11.8799 5.12793ZM22.3106 7.94434H24.9698V6.13281H22.3106V3.35059H20.5264V6.13281H17.8741V7.94434H20.5264V10.7266H22.3106V7.94434Z" fill="#EF3A01"/>
</svg>
